<?xml version="1.0" encoding="utf-8"?>
<!-- Generator: Adobe Illustrator 25.3.1, SVG Export Plug-In . SVG Version: 6.00 Build 0)  -->
<svg version="1.1" id="Layer_1" xmlns="http://www.w3.org/2000/svg" xmlns:xlink="http://www.w3.org/1999/xlink" x="0px" y="0px"
	 viewBox="0 0 64 64" style="enable-background:new 0 0 64 64;" xml:space="preserve">
<style type="text/css">
	.st0{enable-background:new    ;}
	.st1{fill:#FFFFFF;}
</style>
<path d="M36.16,27.79l-3.66-3.66c-0.13-0.13-0.3-0.21-0.49-0.21s-0.37,0.08-0.49,0.21l-3.66,3.66c-0.27,0.27-0.27,0.71,0,0.98
	s0.71,0.27,0.98,0l2.48-2.48v13.1c0,0.38,0.31,0.69,0.69,0.69c0.38,0,0.69-0.31,0.69-0.69v-13.1l2.48,2.48
	c0.14,0.14,0.31,0.2,0.49,0.2c0.18,0,0.35-0.07,0.49-0.2C36.43,28.5,36.43,28.06,36.16,27.79z"/>
</svg>
