<?xml version="1.0" encoding="utf-8"?>
<!-- Generator: Adobe Illustrator 25.3.1, SVG Export Plug-In . SVG Version: 6.00 Build 0)  -->
<svg version="1.1" id="Layer_1" xmlns="http://www.w3.org/2000/svg" xmlns:xlink="http://www.w3.org/1999/xlink" x="0px" y="0px"
	 viewBox="0 0 64 64" style="enable-background:new 0 0 64 64;" xml:space="preserve">
<style type="text/css">
	.st0{enable-background:new    ;}
	.st1{fill:#FFFFFF;}
</style>
<path id="Icon_ionic-ios-close" d="M34.56,32l7.72-7.72c0.7-0.72,0.68-1.86-0.04-2.56c-0.7-0.68-1.82-0.68-2.52,0L32,29.44
	l-7.72-7.72c-0.7-0.72-1.84-0.74-2.56-0.04c-0.72,0.7-0.74,1.84-0.04,2.56c0.01,0.01,0.03,0.03,0.04,0.04L29.44,32l-7.72,7.72
	c-0.7,0.72-0.68,1.86,0.04,2.56c0.7,0.68,1.82,0.68,2.52,0L32,34.56l7.72,7.72c0.7,0.72,1.84,0.74,2.56,0.04
	c0.72-0.7,0.74-1.84,0.04-2.56c-0.01-0.01-0.03-0.03-0.04-0.04L34.56,32z"/>
</svg>
