<?xml version="1.0" encoding="utf-8"?>
<!-- Generator: Adobe Illustrator 25.3.1, SVG Export Plug-In . SVG Version: 6.00 Build 0)  -->
<svg version="1.1" id="Layer_1" xmlns="http://www.w3.org/2000/svg" xmlns:xlink="http://www.w3.org/1999/xlink" x="0px" y="0px"
	 viewBox="0 0 64 64" style="enable-background:new 0 0 64 64;" xml:space="preserve">
<style type="text/css">
	.st0{enable-background:new    ;}
	.st1{fill:#FFFFFF;}
</style>
<path id="Icon_awesome-instagram" d="M32,27.38c-2.55,0-4.61,2.06-4.61,4.61s2.06,4.61,4.61,4.61s4.61-2.06,4.61-4.61c0,0,0,0,0,0
	C36.62,29.45,34.56,27.39,32,27.38C32.01,27.38,32,27.38,32,27.38z M32,35c-1.66,0-3-1.34-3-3s1.34-3,3-3c1.66,0,3,1.34,3,3
	C35,33.66,33.66,35,32,35z M37.88,27.2c0,0.59-0.48,1.08-1.08,1.08c-0.59,0-1.08-0.48-1.08-1.08c0-0.59,0.48-1.08,1.08-1.08l0,0
	C37.4,26.12,37.88,26.6,37.88,27.2C37.88,27.19,37.88,27.19,37.88,27.2L37.88,27.2z M40.94,28.29c0.03-1.4-0.49-2.75-1.46-3.77
	c-1.02-0.96-2.37-1.48-3.77-1.46c-1.49-0.08-5.94-0.08-7.43,0c-1.4-0.03-2.75,0.49-3.77,1.45c-0.96,1.02-1.48,2.37-1.46,3.77
	c-0.08,1.49-0.08,5.94,0,7.43c-0.03,1.4,0.49,2.75,1.46,3.77c1.02,0.96,2.37,1.48,3.77,1.46c1.49,0.08,5.94,0.08,7.43,0
	c1.4,0.03,2.75-0.49,3.77-1.46c0.96-1.02,1.48-2.37,1.46-3.77C41.02,34.22,41.02,29.78,40.94,28.29L40.94,28.29z M39.02,37.31
	c-0.31,0.78-0.93,1.4-1.71,1.71c-1.18,0.47-4,0.36-5.31,0.36s-4.13,0.1-5.31-0.36c-0.78-0.31-1.4-0.93-1.71-1.71
	c-0.47-1.18-0.36-4-0.36-5.31s-0.1-4.13,0.36-5.31c0.31-0.78,0.93-1.4,1.71-1.71c1.18-0.47,4-0.36,5.31-0.36
	c1.31,0,4.13-0.1,5.31,0.36c0.78,0.31,1.4,0.93,1.71,1.71c0.47,1.18,0.36,4,0.36,5.31S39.49,36.12,39.02,37.31z"/>
</svg>
