<?xml version="1.0" encoding="utf-8"?>
<!-- Generator: Adobe Illustrator 25.3.1, SVG Export Plug-In . SVG Version: 6.00 Build 0)  -->
<svg version="1.1" id="Layer_1" xmlns="http://www.w3.org/2000/svg" xmlns:xlink="http://www.w3.org/1999/xlink" x="0px" y="0px"
	 viewBox="0 0 64 64" style="enable-background:new 0 0 64 64;" xml:space="preserve">
<style type="text/css">
	.st0{enable-background:new    ;}
	.st1{fill:#FFFFFF;}
</style>
<g id="Icon_feather-loader" transform="translate(3.527 -2.245) rotate(20)">
	<path d="M38.55,20.32c-0.02,0.01-0.05,0.01-0.08,0.01c-0.13,0-0.23-0.1-0.23-0.23l0-1.56c0-0.13,0.1-0.23,0.23-0.23
		c0.13,0,0.23,0.1,0.23,0.23l0,1.56C38.7,20.2,38.64,20.29,38.55,20.32z"/>
	<path d="M38.55,26.55c-0.02,0.01-0.05,0.01-0.08,0.01c-0.13,0-0.23-0.1-0.23-0.23l0-1.56c0-0.13,0.1-0.23,0.23-0.23
		c0.13,0,0.23,0.1,0.23,0.23l0,1.56C38.7,26.44,38.64,26.52,38.55,26.55z"/>
	<path d="M36.9,21.01c-0.08,0.03-0.18,0.01-0.24-0.05l-1.1-1.1c-0.09-0.09-0.09-0.24,0-0.33c0.09-0.09,0.24-0.09,0.33,0l1.1,1.1
		c0.09,0.09,0.09,0.24,0,0.33C36.96,20.98,36.93,21,36.9,21.01z"/>
	<path d="M41.3,25.41c-0.08,0.03-0.18,0.01-0.24-0.05l-1.1-1.1c-0.09-0.09-0.09-0.24,0-0.33c0.09-0.09,0.24-0.09,0.33,0l1.1,1.1
		c0.09,0.09,0.09,0.24,0,0.33C41.36,25.38,41.33,25.4,41.3,25.41z"/>
	<path d="M36.21,22.66c-0.02,0.01-0.05,0.01-0.08,0.01l-1.56,0c-0.13,0-0.23-0.1-0.23-0.23c0-0.13,0.1-0.23,0.23-0.23l1.56,0
		c0.13,0,0.23,0.1,0.23,0.23C36.36,22.54,36.3,22.63,36.21,22.66z"/>
	<path d="M42.44,22.66c-0.02,0.01-0.05,0.01-0.08,0.01l-1.56,0c-0.13,0-0.23-0.1-0.23-0.23c0-0.13,0.1-0.23,0.23-0.23l1.56,0
		c0.13,0,0.23,0.1,0.23,0.23C42.59,22.54,42.53,22.63,42.44,22.66z"/>
	<path d="M35.79,25.41c-0.08,0.03-0.18,0.01-0.24-0.05c-0.09-0.09-0.09-0.24,0-0.33l1.1-1.1c0.09-0.09,0.24-0.09,0.33,0
		c0.09,0.09,0.09,0.24,0,0.33l-1.1,1.1C35.85,25.38,35.82,25.4,35.79,25.41z"/>
	<path d="M40.2,21.01c-0.08,0.03-0.18,0.01-0.24-0.05c-0.09-0.09-0.09-0.24,0-0.33l1.1-1.1c0.09-0.09,0.24-0.09,0.33,0
		c0.09,0.09,0.09,0.24,0,0.33l-1.1,1.1C40.26,20.98,40.23,21,40.2,21.01z"/>
</g>
</svg>
