<?xml version="1.0" encoding="utf-8"?>
<!-- Generator: Adobe Illustrator 25.3.1, SVG Export Plug-In . SVG Version: 6.00 Build 0)  -->
<svg version="1.1" id="Layer_1" xmlns="http://www.w3.org/2000/svg" xmlns:xlink="http://www.w3.org/1999/xlink" x="0px" y="0px"
	 viewBox="0 0 64 64" style="enable-background:new 0 0 64 64;" xml:space="preserve">
<style type="text/css">
	.st0{enable-background:new    ;}
	.st1{fill:#FFFFFF;}
</style>
<g>
	<path d="M32,23c-4.96,0-9,4.04-9,9s4.04,9,9,9s9-4.04,9-9S36.96,23,32,23z M32,40.08c-4.45,0-8.08-3.62-8.08-8.08
		s3.62-8.08,8.08-8.08s8.08,3.62,8.08,8.08S36.45,40.08,32,40.08z"/>
	<path d="M31.3,29.3c-0.17-0.19-0.46-0.22-0.65-0.05c-0.19,0.17-0.22,0.46-0.05,0.65l1.83,2.14l-1.83,2.05
		c-0.17,0.19-0.15,0.48,0.04,0.65c0.09,0.08,0.2,0.12,0.31,0.12c0.13,0,0.25-0.05,0.34-0.15l2.09-2.35
		c0.15-0.17,0.16-0.43,0.01-0.61L31.3,29.3z"/>
</g>
</svg>
