<?xml version="1.0" encoding="utf-8"?>
<!-- Generator: Adobe Illustrator 25.3.1, SVG Export Plug-In . SVG Version: 6.00 Build 0)  -->
<svg version="1.1" id="Layer_1" xmlns="http://www.w3.org/2000/svg" xmlns:xlink="http://www.w3.org/1999/xlink" x="0px" y="0px"
	 viewBox="0 0 64 64" style="enable-background:new 0 0 64 64;" xml:space="preserve">
<style type="text/css">
	.st0{enable-background:new    ;}
	.st1{fill:#FFFFFF;}
</style>
<path id="Icon_metro-twitter" class="st0" d="M40.81,26.53c-0.66,0.29-1.36,0.48-2.08,0.57c0.75-0.45,1.32-1.16,1.59-2
	c-0.71,0.42-1.49,0.72-2.3,0.88c-1.37-1.45-3.66-1.52-5.12-0.15c-0.93,0.88-1.33,2.19-1.04,3.44c-2.91-0.14-5.62-1.52-7.45-3.77
	c-0.96,1.65-0.47,3.77,1.12,4.83c-0.57-0.02-1.14-0.17-1.64-0.45c0,0.02,0,0.03,0,0.05c0,1.72,1.21,3.2,2.9,3.54
	c-0.53,0.14-1.09,0.17-1.63,0.06c0.47,1.47,1.83,2.48,3.38,2.51c-1.28,1.01-2.86,1.55-4.49,1.55c-0.29,0-0.58-0.02-0.86-0.05
	c1.65,1.06,3.58,1.63,5.54,1.62c5.64,0.04,10.25-4.5,10.29-10.14c0-0.05,0-0.1,0-0.14c0-0.16,0-0.31-0.01-0.47
	C39.71,27.89,40.33,27.26,40.81,26.53L40.81,26.53z"/>
</svg>
