<?xml version="1.0" encoding="utf-8"?>
<!-- Generator: Adobe Illustrator 26.0.1, SVG Export Plug-In . SVG Version: 6.00 Build 0)  -->
<svg version="1.1" id="Layer_1" xmlns="http://www.w3.org/2000/svg" xmlns:xlink="http://www.w3.org/1999/xlink" x="0px" y="0px"
	 viewBox="0 0 76.7 43" style="enable-background:new 0 0 76.7 43;" xml:space="preserve">
<style type="text/css">
	.st0{fill:#646464;}
</style>
<g>
	<path class="st0" d="M46.6,17.2h7.9c0.4,0,0.6-0.3,0.6-0.7c0-0.4-0.3-0.6-0.6-0.6h-7.9c-0.4,0-0.7,0.3-0.7,0.6
		C46,16.9,46.3,17.2,46.6,17.2z"/>
	<rect x="6.5" y="13.9" class="st0" width="2.1" height="1.3"/>
	<path class="st0" d="M73.6,34.8H61.7c2.4-1.5,4-4.2,4-7.2v-0.8c0,0,0,0,0,0s0,0,0,0v-9.4c0-8.8-7.1-15.9-16-16H12.5
		c-5.5,0-10,4.5-10,10v7.1c0,0,0,0,0,0s0,0,0,0v3.9c0,0,0,0,0,0s0,0,0,0v4.2c0,0,0,0,0,0s0,0,0,0v0.5c0,4.9,4,8.9,8.9,8.9h1.1
		c0.3,3.1,2.9,5.5,6.1,5.5c0.8,0,1.7-0.2,2.4-0.5c2.1-0.9,3.4-2.8,3.7-5h1.8c0.3,3.1,2.9,5.5,6.1,5.5c0.8,0,1.7-0.2,2.4-0.5
		c2.1-0.9,3.4-2.8,3.7-5h5.5H57h0h0.2h8.6V41c0,0.4,0.3,0.6,0.6,0.7c0,0,0,0,0,0c0.4,0,0.6-0.3,0.6-0.7v-4.9h2.1V41
		c0,0.4,0.3,0.7,0.7,0.7s0.7-0.3,0.7-0.7v-4.9h3c0.4,0,0.6-0.3,0.6-0.6C74.2,35.1,73.9,34.8,73.6,34.8z M56.4,19.1H44.8l0-9.1h11.5
		V19.1z M57.7,34.8v-7.4h6.8v0.2C64.4,31.4,61.4,34.6,57.7,34.8z M12.5,2.7h37.3c8.1,0,14.6,6.6,14.7,14.7v8.8h-6.8V9.4c0,0,0,0,0,0
		c0-0.4-0.3-0.6-0.6-0.6H44.2c0,0,0,0,0,0c-0.4,0-0.6,0.3-0.6,0.6v16.7H3.8v-2.9H12h27.5c0,0,0,0,0,0c0.4,0,0.6-0.3,0.6-0.6V19
		c0,0,0,0,0,0s0,0,0,0V8.4c0-0.4-0.3-0.6-0.6-0.6H25.8c0,0,0,0,0,0s0,0,0,0H12c-0.4,0-0.6,0.3-0.6,0.6v5.5h-0.6v1.3h0.6v2.7H3.8
		v-2.7h0.6v-1.3H3.8v-2.5C3.8,6.6,7.7,2.7,12.5,2.7z M38.9,9.1v9.3H26.5V9.1H38.9z M12.7,21.9l0-2.2h26.3v2.2H12.7z M25.2,18.4H12.7
		l0-9.3h12.5V18.4z M11.4,21.9H3.8v-2.7h7.6V21.9z M3.8,27.4h39.8v7.4h-4.9c0-0.1-0.1-0.3-0.1-0.4c0-0.1,0-0.2-0.1-0.3
		c-0.1-0.3-0.1-0.5-0.2-0.8c0-0.1-0.1-0.2-0.1-0.3c-0.1-0.2-0.1-0.3-0.2-0.5c0-0.1-0.1-0.1-0.1-0.2c-0.2-0.3-0.3-0.5-0.5-0.8
		c0-0.1-0.1-0.1-0.1-0.2c-0.2-0.2-0.4-0.4-0.6-0.6c-0.1-0.1-0.1-0.1-0.2-0.2c-0.2-0.2-0.4-0.3-0.6-0.4c-0.1-0.1-0.2-0.1-0.3-0.2
		c-0.1-0.1-0.3-0.1-0.4-0.2c-0.2-0.1-0.3-0.1-0.5-0.2c-0.2-0.1-0.3-0.1-0.5-0.2c-0.2,0-0.3-0.1-0.5-0.1c-0.1,0-0.2,0-0.3-0.1
		c-1.3-0.1-2.5,0.1-3.6,0.7c0,0-0.1,0-0.1,0.1c-0.1,0.1-0.3,0.2-0.4,0.2c-0.1,0-0.1,0.1-0.2,0.1c-0.1,0.1-0.2,0.1-0.3,0.2
		c-0.1,0.1-0.2,0.1-0.2,0.2c-0.1,0.1-0.1,0.1-0.2,0.2c-0.1,0.1-0.2,0.2-0.3,0.3c0,0-0.1,0.1-0.1,0.1c-0.1,0.1-0.2,0.3-0.3,0.4
		c0,0,0,0,0,0.1c-0.6,0.8-0.9,1.8-1,2.8h-1.8c0-0.1-0.1-0.3-0.1-0.4c0-0.1,0-0.2-0.1-0.3c-0.1-0.3-0.1-0.5-0.2-0.8
		c0-0.1-0.1-0.2-0.1-0.3c-0.1-0.2-0.1-0.3-0.2-0.5c0-0.1-0.1-0.1-0.1-0.2c-0.2-0.3-0.3-0.5-0.5-0.8c0-0.1-0.1-0.1-0.1-0.2
		c-0.2-0.2-0.4-0.4-0.6-0.6c-0.1-0.1-0.1-0.1-0.2-0.2c-0.2-0.2-0.4-0.3-0.6-0.4c-0.1-0.1-0.2-0.1-0.3-0.2c-0.1-0.1-0.3-0.1-0.4-0.2
		c-0.2-0.1-0.3-0.1-0.5-0.2c-0.2-0.1-0.3-0.1-0.5-0.2c-0.2,0-0.3-0.1-0.5-0.1c-0.1,0-0.2,0-0.3-0.1c-1.3-0.1-2.5,0.1-3.6,0.7
		c0,0-0.1,0-0.1,0.1c-0.1,0.1-0.3,0.2-0.4,0.2c-0.1,0-0.1,0.1-0.2,0.1c-0.1,0.1-0.2,0.1-0.3,0.2c-0.1,0.1-0.2,0.1-0.2,0.2
		c-0.1,0.1-0.1,0.1-0.2,0.2c-0.1,0.1-0.2,0.2-0.3,0.3c0,0-0.1,0.1-0.1,0.1c-0.1,0.1-0.2,0.3-0.3,0.4c0,0,0,0,0,0.1
		c-0.6,0.8-0.9,1.8-1,2.8h-1.1C7.2,34.8,3.9,31.5,3.8,27.4z M33.6,30.8c0,0,0.1,0,0.1,0L32.9,33c-0.2,0-0.4,0-0.7,0l-0.9-2.1
		c0.4-0.1,0.8-0.2,1.3-0.2c0.3,0,0.6,0,0.9,0.1C33.5,30.7,33.6,30.7,33.6,30.8z M36.5,32.7c0,0.1,0.1,0.1,0.1,0.2
		c0,0.1,0.1,0.1,0.1,0.2l-2.1,0.9c-0.1-0.2-0.3-0.3-0.5-0.5l0.9-2.2c0.4,0.2,0.7,0.4,1,0.7c0,0,0.1,0.1,0.1,0.1
		C36.2,32.3,36.4,32.5,36.5,32.7z M30.5,34l-2.2-0.9c0.4-0.7,1-1.3,1.7-1.8l0.9,2.1C30.8,33.6,30.6,33.8,30.5,34z M27.7,35.5
		C27.7,35.5,27.7,35.5,27.7,35.5c0-0.4,0.1-0.8,0.2-1.2l2.2,0.9c0,0.2,0,0.5,0,0.7l-2.2,0.9C27.8,36.4,27.7,35.9,27.7,35.5z
		 M31.3,35.5c0-0.7,0.6-1.2,1.2-1.3v0c0.5,0,1,0.3,1.2,0.8c0.1,0.2,0.1,0.3,0.1,0.5c0,0.7-0.6,1.2-1.2,1.3
		C31.9,36.7,31.3,36.2,31.3,35.5z M35.1,35.1l2.1-0.9c0.1,0.4,0.2,0.8,0.2,1.3c0,0.4-0.1,0.8-0.2,1.2l-2.2-0.9
		C35.1,35.6,35.1,35.3,35.1,35.1z M19.6,30.7c0,0,0.1,0,0.1,0L18.9,33c-0.2,0-0.5,0-0.7,0l-0.9-2.1c0.4-0.1,0.8-0.2,1.3-0.2
		c0.3,0,0.6,0,0.9,0.1C19.5,30.7,19.6,30.7,19.6,30.7z M22.5,32.7c0,0,0.1,0.1,0.1,0.1c0,0.1,0.1,0.1,0.1,0.2l-2.1,0.9
		c-0.1-0.2-0.3-0.3-0.5-0.5l0.9-2.2c0.4,0.2,0.7,0.4,1,0.7c0,0,0.1,0.1,0.1,0.1C22.2,32.3,22.4,32.5,22.5,32.7z M16.5,34l-2.2-0.9
		c0.4-0.7,1-1.3,1.7-1.8l0.9,2.2C16.8,33.6,16.6,33.8,16.5,34z M13.7,35.5C13.7,35.5,13.7,35.5,13.7,35.5c0-0.4,0.1-0.8,0.2-1.2
		l2.2,0.9c0,0.1,0,0.2,0,0.3c0,0.1,0,0.2,0,0.4l-2.2,0.9C13.8,36.4,13.7,35.9,13.7,35.5z M17.3,35.5c0-0.7,0.6-1.3,1.2-1.3l0,0
		c0.5,0,1,0.3,1.2,0.8c0.1,0.2,0.1,0.3,0.1,0.5c0,0.7-0.6,1.3-1.2,1.3S17.3,36.2,17.3,35.5z M21.1,35.1l2.1-0.9
		c0.1,0.4,0.2,0.8,0.2,1.3c0,0,0,0,0,0c0,0,0,0,0,0c0,0.4-0.1,0.8-0.2,1.2l-2.2-0.9C21.1,35.6,21.1,35.3,21.1,35.1z M14.4,38
		l2.2-0.9c0.1,0.2,0.3,0.3,0.5,0.5l-0.9,2.2C15.4,39.3,14.8,38.7,14.4,38z M18.5,40.3c-0.4,0-0.8-0.1-1.2-0.2l0.9-2.2
		c0.1,0,0.2,0,0.3,0c0.1,0,0.2,0,0.4,0l0.9,2.1C19.4,40.3,19,40.3,18.5,40.3z M21,39.6l-0.9-2.1c0.2-0.1,0.3-0.3,0.5-0.5l2.2,0.9
		C22.3,38.6,21.8,39.2,21,39.6z M28.4,38l2.2-0.9c0.1,0.2,0.3,0.3,0.5,0.5l-0.9,2.2C29.4,39.3,28.8,38.7,28.4,38z M32.5,40.3
		c-0.4,0-0.8-0.1-1.2-0.2l0.9-2.2c0.1,0,0.2,0,0.3,0h0c0.1,0,0.2,0,0.4,0l0.9,2.2C33.4,40.3,33,40.3,32.5,40.3z M35,39.6l-0.9-2.2
		c0.2-0.1,0.3-0.3,0.5-0.5l2.2,0.9C36.3,38.6,35.8,39.2,35,39.6z M44.8,34.8l0-8.1c0,0,0,0,0,0s0,0,0,0l0-6.3h11.5v14.4H44.8z"/>
</g>
</svg>
