<?xml version="1.0" encoding="utf-8"?>
<!-- Generator: Adobe Illustrator 24.1.1, SVG Export Plug-In . SVG Version: 6.00 Build 0)  -->
<svg version="1.1" id="Layer_1" xmlns="http://www.w3.org/2000/svg" xmlns:xlink="http://www.w3.org/1999/xlink" x="0px" y="0px"
	 viewBox="0 0 200 30" style="enable-background:new 0 0 200 30;" xml:space="preserve">
<g>
	<path id="Path_1593_1_" style="fill:#1F80C1;" d="M9.6134672,1.59601c4.8478804,0,8.2992506,2.7930205,9.256856,7.1745605
		h-5.7780542c-0.6209488-1.401495-2.0274324-2.2892747-3.5610962-2.2468853c-2.4663343,0-4.0822954,1.9177065-4.0822954,4.875309
		c0,2.9850378,1.6159611,4.9027443,4.0822954,4.9027443c1.5336637,0.0448856,2.9401474-0.8428946,3.5610962-2.2468853h5.7780542
		c-0.9576054,4.3815479-4.4089794,7.1770649-9.256856,7.1770649C3.807981,21.2319183,0,17.1795483,0,11.3990021
		C0.0024943,5.6483788,3.8079791,1.59601,9.6134672,1.59601z"/>
	<path id="Path_1594_1_" style="fill:#1F80C1;" d="M27.0847874,5.5386529c2.1895275,0,3.725687,0.9576049,4.5187035,2.3266797
		V5.7281737h5.3665829V21.092268h-5.3665829v-2.1346626c-0.7955132,1.3690739-2.3541164,2.3266869-4.5187035,2.3266869
		c-3.6433907,0-6.546133-2.9850292-6.546133-7.8877821C20.5411453,8.4987516,23.4438896,5.5386529,27.0847874,5.5386529z
		 M28.8104744,10.2219439c-1.5336647,0-2.7930183,1.0947676-2.7930183,3.1770554
		c0,2.0573568,1.2593536,3.2044897,2.7930183,3.2044897c1.5062313,0,2.7930164-1.1221943,2.7930164-3.2044897
		C31.6059856,11.3441391,30.3167095,10.2219439,28.8104744,10.2219439L28.8104744,10.2219439z"/>
	<path id="Path_1595_1_" style="fill:#1F80C1;" d="M45.4064789,21.0947628h-5.366581V5.7306776h5.366581v2.710722
		c1.0773087-1.7132158,2.9351616-2.7805471,4.9576073-2.8478837v5.7231956h-1.5062332
		c-2.2169647,0-3.4513741,0.713213-3.4513741,3.0673285V21.0947628z"/>
	<path id="Path_1596_1_" style="fill:#1F80C1;" d="M51.2119675,1.7855386H66.822937v4.2718215H61.673317V21.092268h-5.3690796
		V6.0573525h-5.0922699V1.7855386z"/>
	<path id="Path_1597_1_" style="fill:#1F80C1;" d="M79.4738159,5.7281814h5.8877792l-9.7531128,22.675808h-5.8304291
		l3.6708221-7.9700794L67.1471329,5.7281737h5.9700775l3.2319183,8.7082329L79.4738159,5.7281814z"/>
	<path id="Path_1598_1_" style="fill:#1F80C1;" d="M92.127182,21.0947628h-5.3690796V5.7306776h5.3665848v2.710722
		c1.0773087-1.7132158,2.9351578-2.7805471,4.9576035-2.8478837v5.7231956h-1.5062332
		c-2.2194519,0-3.4513702,0.713213-3.4513702,3.0673285v6.7107229H92.127182z"/>
	<path id="Path_1599_1_" style="fill:#1F80C1;" d="M105.9276886,21.2867889c-4.5461426,0-7.8054886-2.9850311-7.8054886-7.8877821
		c0-4.875309,3.2044907-7.8603463,7.8054886-7.8603463c4.5461273,0,7.7506256,2.9301744,7.7506256,7.6957641
		c0,0.4214478-0.0274277,0.8428946-0.0822983,1.2593489h-10.1620941c0.109726,1.7805529,1.067337,2.4912691,2.2718124,2.4912691
		c0.8254395,0.0324211,1.5885315-0.4463863,1.9177094-1.2044849h5.7231979
		C112.6384048,18.9326725,109.7630997,21.2867889,105.9276886,21.2867889z M103.4613495,11.8927698h4.7381516
		c0-1.3690748-1.067337-2.107235-2.3017426-2.107235C104.6508789,9.7157097,103.5735703,10.6483765,103.4613495,11.8927698
		L103.4613495,11.8927698z"/>
	<path id="Path_1600_1_" style="fill:#1F80C1;" d="M122.4139633,21.2867889c-4.2718201,0-7.1196976-2.3017406-7.3391495-5.366581
		h5.2019958c0.1371536,1.0124683,0.9875336,1.5611,2.109726,1.5611c0.9027481,0,1.4239502-0.4389057,1.4239502-0.9850407
		c0-2.2468853-8.1620941-0.4114704-8.1620941-6.0498781c0-2.6857829,2.2194595-4.9027438,6.3815536-4.9027438
		c4.1895218,0,6.3815536,2.3266797,6.7381668,5.3665805h-4.8478851c-0.1396484-0.9675817-1.0249329-1.6483755-1.9975128-1.5336637
		c-0.8778076,0-1.3416443,0.3566065-1.3416443,0.9326658c0,2.1895256,8.1870422,0.4389048,8.2144623,6.2718191
		C128.7955017,19.2593555,126.3840332,21.2867889,122.4139633,21.2867889z"/>
	<path id="Path_1601_1_" style="fill:#FFFFFF;" d="M134.0249329,21.3142166c-1.9176941,0-3.1496277-1.2044926-3.1496277-2.7655926
		s1.2344208-2.7930212,3.1496277-2.7930212c1.8902893,0,3.1222076,1.2344179,3.1222076,2.7930212
		S135.9152222,21.3142166,134.0249329,21.3142166z"/>
	<path id="Path_1602_1_" style="fill:#FFFFFF;" d="M146.568573,5.5386529c3.8877869,0,6.7381592,2.2194495,7.5037537,6.079802
		h-5.6982574c-0.194519-0.8977575-1-1.5311766-1.9176941-1.506237c-1.3142242,0-2.1895447,1.0947666-2.1895447,3.2867813
		c0,2.21945,0.8753204,3.3142157,2.1895447,3.3142157c0.9226837,0.0349178,1.7331696-0.6034946,1.9176941-1.5062361h5.6982574
		c-0.763092,3.8079786-3.6134644,6.0797949-7.5037537,6.0797949c-4.5735626,0-7.7780457-2.9850311-7.7780457-7.8877821
		C138.7905273,8.5236902,141.9925232,5.5386529,146.568573,5.5386529z"/>
	<path id="Path_1603_1_" style="fill:#FFFFFF;" d="M163.4364166,21.2867889c-4.5735779,0-8.0249481-2.9850311-8.0249481-7.8877821
		c0-4.875309,3.4788055-7.8603463,8.0523682-7.8603463c4.5735779,0,8.0523682,2.9850373,8.0523682,7.8603463
		C171.5162201,18.3017426,168.009964,21.2867889,163.4364166,21.2867889z M163.4364166,16.6309242
		c1.3690643,0,2.628418-1.0124674,2.628418-3.2319174c0-2.1920223-1.2344208-3.2044907-2.6009979-3.2044907
		c-1.3690796,0-2.5760651,1.0124683-2.5760651,3.2044907C160.890274,15.6159601,162.0399017,16.6309242,163.4364166,16.6309242z"/>
	<path id="Path_1604_1_" style="fill:#FFFFFF;" d="M194.6284332,12.8503752
		c0.1296844-1.3042421-0.822937-2.4688263-2.1296692-2.5985069c-0.1396484-0.0149622-0.2792969-0.0149622-0.4164581-0.0049849
		c-1.5610962,0-2.5461426,0.9301777-2.5461426,2.6034918v8.2443876h-5.3690796v-8.2443876
		c0-1.670826-0.9850464-2.6034918-2.518692-2.6034918c-1.5860291,0-2.5735779,0.9301777-2.5735779,2.6034918v8.2443876h-5.3690796
		V5.7306776h5.3690796V7.75811c1.0373993-1.4164567,2.7107239-2.2269306,4.4638519-2.1645865
		c2.0997467-0.0897717,4.0748138,0.9975061,5.1221924,2.8204484c1.1246948-1.7406511,3.0498657-2.8005018,5.1221924-2.8204484
		C197.6708374,5.5935235,200,8.1122284,200,12.139658v8.9576015h-5.3690796L194.6284332,12.8503752z"/>
</g>
</svg>
